<?xml version="1.0"?>
<svg version="1.1" xmlns="http://www.w3.org/2000/svg" width="700" height="200" style=""><path fill="#" d=""/><path fill="#" d="M47.02,127.79c0,7.35-6.37,10.85-13.51,10.85c-3.64,0-7.63-1.05-10.78-2.45c-0.63-0.28-0.84-0.7-0.84-1.12c0-0.21,0.07-0.42,0.14-0.63l1.12-3.57c0.21-0.7,0.56-0.98,0.98-0.98c0.21,0,0.42,0,0.77,0.14c3.08,1.26,6.37,2.17,8.82,2.17c3.08,0,5.18-1.4,5.18-3.71c0-1.96-1.33-3.01-4.2-4.13l-5.53-2.1c-3.99-1.47-7.21-4.55-7.21-9.31c0-6.86,6.44-10.01,12.67-10.01c3.36,0,6.65,0.56,10.15,2.1c0.56,0.28,0.84,0.56,0.84,0.98c0,0.21-0.07,0.42-0.14,0.7l-1.19,3.78c-0.14,0.49-0.49,0.77-0.98,0.77c-0.21,0-0.49-0.07-0.7-0.14c-2.31-0.91-5.32-1.68-7.56-1.68c-2.94,0-4.41,1.61-4.41,3.22c0,1.54,0.77,2.52,3.43,3.57l6.3,2.59c3.71,1.54,6.65,4.41,6.65,8.96z M87.515,135.84c0,1.47-0.42,1.96-1.82,1.96l-4.48,0c-0.91,0-1.61-0.49-1.68-1.4l-0.07-1.75c-3.22,2.59-7.07,3.99-11.13,3.99c-7.84,0-11.06-4.97-11.06-12.53l0-20.65c0-1.19,0.7-1.61,1.82-1.61l4.9,0c1.12,0,1.75,0.35,1.75,1.61l0,19.18c0,3.85,0.98,6.51,5.18,6.51c2.66,0,6.02-1.47,8.12-3.36l0-22.33c0-1.19,0.63-1.61,1.75-1.61l4.97,0c1.12,0,1.75,0.35,1.75,1.61l0,30.38z M132.63,120.37c0,5.32-1.61,10.15-4.55,13.58c-2.59,2.94-6.23,4.76-10.78,4.76c-3.22,0-6.44-1.19-8.47-3.29l0,15.68c0,1.4-0.63,1.82-1.82,1.82l-4.9,0c-1.12,0-1.68-0.63-1.68-1.82l0-45.64c0-1.19,0.56-1.61,1.68-1.61l4.2,0c1.19,0,1.82,0.28,1.89,1.33l0.07,1.89c2.03-2.31,6.02-4.06,9.8-4.06c4.62,0,7.84,1.75,10.15,4.27c3.01,3.29,4.41,8.19,4.41,13.09z M123.81,120.79c0-3.29-0.63-6.16-2.03-8.12c-1.33-1.89-3.29-2.87-5.74-2.87c-2.59,0-5.81,1.68-7.21,3.43l0,15.26c1.4,1.89,4.2,3.43,6.86,3.43c2.45,0,4.41-1.12,5.6-2.59c1.75-2.17,2.52-5.11,2.52-8.54z M173.265,120.72c0,1.68-0.56,2.03-2.31,2.03l-20.51,0c0.56,5.39,4.48,9.1,10.01,9.1c2.94,0,6.02-0.7,8.61-1.68c0.28-0.07,0.49-0.21,0.77-0.21c0.49,0,0.84,0.28,0.98,0.84l0.98,3.57c0.07,0.35,0.14,0.63,0.14,0.84c0,0.49-0.28,0.84-1.12,1.19c-3.43,1.54-8.12,2.24-11.76,2.24c-10.99,0-17.5-7-17.5-17.92c0-10.5,6.93-17.78,17.36-17.78c4.27,0,7.77,1.61,10.22,4.2c3.22,3.36,4.13,7.77,4.13,12.53l0,1.05z M164.935,117.22l0-0.77c-0.14-3.64-2.24-7-6.51-7c-4.55,0-7.28,3.64-7.84,7.77l14.35,0z M202.98,104.13c0,0.21,0,0.42-0.07,0.63l-0.77,4.97c-0.07,0.63-0.42,0.91-0.98,0.91l-0.28,0c-0.56-0.14-1.26-0.21-1.89-0.21c-2.38,0-4.97,1.26-6.72,3.36l0,22.26c0,1.12-0.49,1.75-1.68,1.75l-5.11,0c-1.12,0-1.68-0.56-1.68-1.75l0-21.84l0-8.61c0-1.4,0.7-1.75,1.75-1.75l4.48,0c1.12,0,1.75,0.35,1.75,1.33l0.07,2.24c2.17-2.73,4.55-4.48,8.47-4.48c0.56,0,1.33,0.14,1.96,0.28c0.49,0.14,0.7,0.35,0.7,0.91z M242.565,135.98c0,1.19-0.42,1.82-1.68,1.82l-5.04,0c-1.26,0-1.68-0.63-1.68-1.82l0-19.04c0-3.85-1.05-6.58-5.32-6.58c-2.73,0-6.09,1.47-8.26,3.36l0,22.33c0,1.19-0.49,1.75-1.68,1.75l-5.11,0c-1.05,0-1.68-0.56-1.68-1.68l0-30.52c0-1.12,0.49-1.75,1.75-1.75l4.55,0c0.98,0,1.61,0.28,1.68,1.33l0.07,1.82c3.22-2.59,7.28-4.06,11.34-4.06c7.84,0,11.06,4.9,11.06,12.53l0,20.51z M287.26,120.79c0,10.08-6.16,17.85-17.08,17.85c-11.41,0-16.66-7.7-16.66-17.92c0-10.08,6.16-17.78,17.08-17.78c11.41,0,16.66,7.56,16.66,17.85z M278.51,120.79c0-5.74-1.82-11.2-7.98-11.2c-6.23,0-8.26,5.39-8.26,10.99c0,5.74,1.75,11.41,7.98,11.41c6.16,0,8.26-5.46,8.26-11.2z M328.385,136.05c0,1.19-0.7,1.75-1.54,1.75l-4.55,0c-1.12,0-1.61-0.56-1.68-1.4l-0.14-1.89c-1.96,2.24-5.88,4.13-9.52,4.13c-10.15,0-14.77-8.05-14.77-17.43c0-9.8,5.46-18.34,15.33-18.34c3.15,0,6.44,1.26,8.4,3.29l0-15.75c0-1.26,0.35-1.75,1.47-1.89l5.18-0.7c0.07,0,0.63-0.07,0.7-0.07c0.84,0,1.12,0.35,1.12,1.4l0,46.9z M319.915,128.28l0-15.19c-1.4-1.89-4.06-3.43-6.72-3.43c-5.67,0-8.19,5.32-8.19,11.06s2.1,11.06,7.77,11.06c2.59,0,5.74-1.75,7.14-3.5z M371.05,120.72c0,1.68-0.56,2.03-2.31,2.03l-20.51,0c0.56,5.39,4.48,9.1,10.01,9.1c2.94,0,6.02-0.7,8.61-1.68c0.28-0.07,0.49-0.21,0.77-0.21c0.49,0,0.84,0.28,0.98,0.84l0.98,3.57c0.07,0.35,0.14,0.63,0.14,0.84c0,0.49-0.28,0.84-1.12,1.19c-3.43,1.54-8.12,2.24-11.76,2.24c-10.99,0-17.5-7-17.5-17.92c0-10.5,6.93-17.78,17.36-17.78c4.27,0,7.77,1.61,10.22,4.2c3.22,3.36,4.13,7.77,4.13,12.53l0,1.05z M362.72,117.22l0-0.77c-0.14-3.64-2.24-7-6.51-7c-4.55,0-7.28,3.64-7.84,7.77l14.35,0z M418.405,136.75c0,0.56-0.35,1.05-1.33,1.05l-6.65,0c-1.33,0-2.1-0.49-2.73-1.54l-9.66-16.31l-0.07,0l-9.66,16.31c-0.63,1.12-1.33,1.54-2.8,1.54l-5.81,0c-0.7,0-1.26-0.35-1.26-0.98c0-0.28,0.14-0.63,0.35-0.98l14.49-22.96l-13.58-21.7c-0.21-0.28-0.21-0.63-0.21-0.91c0-0.56,0.42-0.91,0.98-0.91l6.93,0c1.05,0,1.89,0.49,2.52,1.54l8.61,14.49l0.07,0l8.82-14.7c0.56-0.98,1.12-1.33,2.38-1.33l6.44,0c0.7,0,1.05,0.42,1.05,0.91c0,0.35-0.14,0.7-0.35,0.98l-13.79,20.93l14.98,23.59c0.21,0.28,0.28,0.63,0.28,0.98z"/></svg>
