<?xml version="1.0"?>
<svg version="1.1" xmlns="http://www.w3.org/2000/svg" width="400" height="200" style=""><path fill="#" d=""/><path fill="#" d="M43.16,123.82c0,6.3-5.46,9.3-11.58,9.3c-3.12,0-6.54-0.9-9.24-2.1c-0.54-0.24-0.72-0.6-0.72-0.96c0-0.18,0.06-0.36,0.12-0.54l0.96-3.06c0.18-0.6,0.48-0.84,0.84-0.84c0.18,0,0.36,0,0.66,0.12c2.64,1.08,5.46,1.86,7.56,1.86c2.64,0,4.44-1.2,4.44-3.18c0-1.68-1.14-2.58-3.6-3.54l-4.74-1.8c-3.42-1.26-6.18-3.9-6.18-7.98c0-5.88,5.52-8.58,10.86-8.58c2.88,0,5.7,0.48,8.7,1.8c0.48,0.24,0.72,0.48,0.72,0.84c0,0.18-0.06,0.36-0.12,0.6l-1.02,3.24c-0.12,0.42-0.42,0.66-0.84,0.66c-0.18,0-0.42-0.06-0.6-0.12c-1.98-0.78-4.56-1.44-6.48-1.44c-2.52,0-3.78,1.38-3.78,2.76c0,1.32,0.66,2.16,2.94,3.06l5.4,2.22c3.18,1.32,5.7,3.78,5.7,7.68z M77.87,130.72c0,1.26-0.36,1.68-1.56,1.68l-3.84,0c-0.78,0-1.38-0.42-1.44-1.2l-0.06-1.5c-2.76,2.22-6.06,3.42-9.54,3.42c-6.72,0-9.48-4.26-9.48-10.74l0-17.7c0-1.02,0.6-1.38,1.56-1.38l4.2,0c0.96,0,1.5,0.3,1.5,1.38l0,16.44c0,3.3,0.84,5.58,4.44,5.58c2.28,0,5.16-1.26,6.96-2.88l0-19.14c0-1.02,0.54-1.38,1.5-1.38l4.26,0c0.96,0,1.5,0.3,1.5,1.38l0,26.04z M116.54,117.46c0,4.56-1.38,8.7-3.9,11.64c-2.22,2.52-5.34,4.08-9.24,4.08c-2.76,0-5.52-1.02-7.26-2.82l0,13.44c0,1.2-0.54,1.56-1.56,1.56l-4.2,0c-0.96,0-1.44-0.54-1.44-1.56l0-39.12c0-1.02,0.48-1.38,1.44-1.38l3.6,0c1.02,0,1.56,0.24,1.62,1.14l0.06,1.62c1.74-1.98,5.16-3.48,8.4-3.48c3.96,0,6.72,1.5,8.7,3.66c2.58,2.82,3.78,7.02,3.78,11.22z M108.98,117.82c0-2.82-0.54-5.28-1.74-6.96c-1.14-1.62-2.82-2.46-4.92-2.46c-2.22,0-4.98,1.44-6.18,2.94l0,13.08c1.2,1.62,3.6,2.94,5.88,2.94c2.1,0,3.78-0.96,4.8-2.22c1.5-1.86,2.16-4.38,2.16-7.32z M151.37,117.76c0,1.44-0.48,1.74-1.98,1.74l-17.58,0c0.48,4.62,3.84,7.8,8.58,7.8c2.52,0,5.16-0.6,7.38-1.44c0.24-0.06,0.42-0.18,0.66-0.18c0.42,0,0.72,0.24,0.84,0.72l0.84,3.06c0.06,0.3,0.12,0.54,0.12,0.72c0,0.42-0.24,0.72-0.96,1.02c-2.94,1.32-6.96,1.92-10.08,1.92c-9.42,0-15-6-15-15.36c0-9,5.94-15.24,14.88-15.24c3.66,0,6.66,1.38,8.76,3.6c2.76,2.88,3.54,6.66,3.54,10.74l0,0.9z M144.23,114.76l0-0.66c-0.12-3.12-1.92-6-5.58-6c-3.9,0-6.24,3.12-6.72,6.66l12.3,0z M176.84,103.54c0,0.18,0,0.36-0.06,0.54l-0.66,4.26c-0.06,0.54-0.36,0.78-0.84,0.78l-0.24,0c-0.48-0.12-1.08-0.18-1.62-0.18c-2.04,0-4.26,1.08-5.76,2.88l0,19.08c0,0.96-0.42,1.5-1.44,1.5l-4.38,0c-0.96,0-1.44-0.48-1.44-1.5l0-18.72l0-7.38c0-1.2,0.6-1.5,1.5-1.5l3.84,0c0.96,0,1.5,0.3,1.5,1.14l0.06,1.92c1.86-2.34,3.9-3.84,7.26-3.84c0.48,0,1.14,0.12,1.68,0.24c0.42,0.12,0.6,0.3,0.6,0.78z M210.77,130.84c0,1.02-0.36,1.56-1.44,1.56l-4.32,0c-1.08,0-1.44-0.54-1.44-1.56l0-16.32c0-3.3-0.9-5.64-4.56-5.64c-2.34,0-5.22,1.26-7.08,2.88l0,19.14c0,1.02-0.42,1.5-1.44,1.5l-4.38,0c-0.9,0-1.44-0.48-1.44-1.44l0-26.16c0-0.96,0.42-1.5,1.5-1.5l3.9,0c0.84,0,1.38,0.24,1.44,1.14l0.06,1.56c2.76-2.22,6.24-3.48,9.72-3.48c6.72,0,9.48,4.2,9.48,10.74l0,17.58z M249.08,117.82c0,8.64-5.28,15.3-14.64,15.3c-9.78,0-14.28-6.6-14.28-15.36c0-8.64,5.28-15.24,14.64-15.24c9.78,0,14.28,6.48,14.28,15.3z M241.58,117.82c0-4.92-1.56-9.6-6.84-9.6c-5.34,0-7.08,4.62-7.08,9.42c0,4.92,1.5,9.78,6.84,9.78c5.28,0,7.08-4.68,7.08-9.6z M284.33,130.9c0,1.02-0.6,1.5-1.32,1.5l-3.9,0c-0.96,0-1.38-0.48-1.44-1.2l-0.12-1.62c-1.68,1.92-5.04,3.54-8.16,3.54c-8.7,0-12.66-6.9-12.66-14.94c0-8.4,4.68-15.72,13.14-15.72c2.7,0,5.52,1.08,7.2,2.82l0-13.5c0-1.08,0.3-1.5,1.26-1.62l4.44-0.6c0.06,0,0.54-0.06,0.6-0.06c0.72,0,0.96,0.3,0.96,1.2l0,40.2z M277.07,124.24l0-13.02c-1.2-1.62-3.48-2.94-5.76-2.94c-4.86,0-7.02,4.56-7.02,9.48s1.8,9.48,6.66,9.48c2.22,0,4.92-1.5,6.12-3z M320.9,117.76c0,1.44-0.48,1.74-1.98,1.74l-17.58,0c0.48,4.62,3.84,7.8,8.58,7.8c2.52,0,5.16-0.6,7.38-1.44c0.24-0.06,0.42-0.18,0.66-0.18c0.42,0,0.72,0.24,0.84,0.72l0.84,3.06c0.06,0.3,0.12,0.54,0.12,0.72c0,0.42-0.24,0.72-0.96,1.02c-2.94,1.32-6.96,1.92-10.08,1.92c-9.42,0-15-6-15-15.36c0-9,5.94-15.24,14.88-15.24c3.66,0,6.66,1.38,8.76,3.6c2.76,2.88,3.54,6.66,3.54,10.74l0,0.9z M313.76,114.76l0-0.66c-0.12-3.12-1.92-6-5.58-6c-3.9,0-6.24,3.12-6.72,6.66l12.3,0z M361.49,131.5c0,0.48-0.3,0.9-1.14,0.9l-5.7,0c-1.14,0-1.8-0.42-2.34-1.32l-8.28-13.98l-0.06,0l-8.28,13.98c-0.54,0.96-1.14,1.32-2.4,1.32l-4.98,0c-0.6,0-1.08-0.3-1.08-0.84c0-0.24,0.12-0.54,0.3-0.84l12.42-19.68l-11.64-18.6c-0.18-0.24-0.18-0.54-0.18-0.78c0-0.48,0.36-0.78,0.84-0.78l5.94,0c0.9,0,1.62,0.42,2.16,1.32l7.38,12.42l0.06,0l7.56-12.6c0.48-0.84,0.96-1.14,2.04-1.14l5.52,0c0.6,0,0.9,0.36,0.9,0.78c0,0.3-0.12,0.6-0.3,0.84l-11.82,17.94l12.84,20.22c0.18,0.24,0.24,0.54,0.24,0.84z"/></svg>
