<?xml version="1.0"?>
<svg version="1.1" xmlns="http://www.w3.org/2000/svg" width="400" height="200" style="border: dashed 2px #aaa"><path fill="#" d=""/><path fill="#" d="M30.547,98.569l19.981,0l0-4.028l-19.981,0q-3.922,0-6.572,3.074q-2.703,3.127-2.703,7.579q0,4.028,2.703,6.996q2.65,3.021,6.572,3.021l5.3,0l5.406,0q2.385,0,4.24,2.014q1.749,2.12,1.749,4.611q0,2.968-1.7225,4.823t-4.2665,1.855l-19.981,0l0,3.286l19.981,0q3.975,0,6.625-2.756t2.65-7.208q0-4.028-2.65-6.996q-2.703-2.968-6.625-2.968l-5.406,0l-5.3,0q-2.438,0-4.187-2.12q-1.802-1.961-1.802-4.558q0-2.968,1.7225-4.7965t4.2665-1.8285z M87.35452,94.647l-3.339,0l0,22.631q0,4.876-3.392,8.162q-3.339,3.18-7.95,3.18q-5.035,0-8.109-3.18q-3.127-3.233-3.127-8.162l0-22.631l-3.392,0l0,22.631q0,6.042,4.134,10.282q4.187,4.346,10.494,4.346q5.883,0,10.335-4.346q4.346-4.24,4.346-10.282l0-22.631z M115.54204,94.7l-16.642,0l-3.286,0l0,37.259l3.286,0l0-18.656l16.642,0q4.028,0,6.678-2.65t2.65-6.625q0-3.604-2.65-6.413q-2.809-2.915-6.678-2.915z M115.54204,110.017l-16.642,0l0-12.031l16.642,0q2.438,0,4.293,1.749q1.749,1.855,1.749,4.293q0,2.491-1.749,4.24q-1.855,1.749-4.293,1.749z M134.34856,121.624q0-2.544,1.802-4.611q1.802-2.173,4.346-2.173l0.689,0l9.911,0l0-3.286l-9.911,0l-0.689,0q-2.703-0.53-4.4255-2.332t-1.7225-4.293q0-3.127,1.8285-4.9555t5.0085-1.8285l18.02,0l0-3.339l-18.02,0q-4.081,0-7.102,3.021q-3.021,2.915-3.021,7.102q0,2.65,1.007,4.823t2.968,3.127q-1.961,1.431-2.968,3.763t-1.007,4.982q0,4.134,3.021,7.049q3.074,3.074,7.102,3.074l18.02,0l0-3.498l-18.02,0q-3.18,0-5.0085-1.802t-1.8285-4.823z M182.04008,113.197l3.975,0q4.028,0,6.678-2.65t2.65-6.678q0-3.551-2.65-6.36q-2.809-2.915-6.678-2.915l-16.589,0l-3.286,0l0,37.206l3.286,0l0-18.603l8.639,0l11.289,18.603l3.975,0z M169.42608,109.911l0-11.978l16.589,0q2.438,0,4.293,1.749q1.749,1.749,1.749,4.187q0,2.544-1.749,4.293q-1.855,1.749-4.293,1.749l-16.589,0z M203.0196,131.8l3.286,0l0-22.472q0-4.452,3.392-7.95q3.392-3.392,7.844-3.392t7.95,3.392q3.392,3.498,3.392,7.95l0,22.472l3.286,0l0-22.472q0-6.042-4.293-10.335t-10.335-4.293q-5.936,0-10.229,4.293t-4.293,10.335l0,22.472z M254.52712,94.7q-5.989,0-10.282,4.293q-4.346,4.346-4.346,10.335l0,8.003q0,5.883,4.346,10.229t10.282,4.346q5.989,0,10.335-4.346q4.293-4.293,4.293-10.229l0-8.003q0-6.042-4.293-10.335t-10.335-4.293z M265.86912,109.328l0,8.003q0,4.823-3.392,8.109q-3.339,3.18-7.95,3.18t-7.897-3.18q-3.392-3.286-3.392-8.109l0-8.003q0-4.452,3.392-7.95q3.392-3.392,7.897-3.392q4.452,0,7.95,3.392q3.392,3.498,3.392,7.95z M288.65064,94.647l-8.109,0l-2.014,0l-1.325,0l0,37.153l1.325,0l2.014,0l8.109,0q7.738,0,13.25-5.406q5.671-5.565,5.671-13.515q0-7.526-5.671-12.932q-5.565-5.3-13.25-5.3z M288.65064,128.461l-8.109,0l0-30.369l8.109,0q6.625,0,11.13,4.346q4.452,4.346,4.452,10.441q0,6.625-4.452,11.077q-4.505,4.505-11.13,4.505z M318.21616,121.624q0-2.544,1.802-4.611q1.802-2.173,4.346-2.173l0.689,0l9.911,0l0-3.286l-9.911,0l-0.689,0q-2.703-0.53-4.4255-2.332t-1.7225-4.293q0-3.127,1.8285-4.9555t5.0085-1.8285l18.02,0l0-3.339l-18.02,0q-4.081,0-7.102,3.021q-3.021,2.915-3.021,7.102q0,2.65,1.007,4.823t2.968,3.127q-1.961,1.431-2.968,3.763t-1.007,4.982q0,4.134,3.021,7.049q3.074,3.074,7.102,3.074l18.02,0l0-3.498l-18.02,0q-3.18,0-5.0085-1.802t-1.8285-4.823z M366.80868,113.303l12.614-18.656l-4.028,0l-10.6,15.9l-11.236-15.9l-3.392,0l12.614,18.656l-13.25,18.55l4.028,0l11.236-15.9l10.6,15.9l3.392,0z"/></svg>
